<svg xmlns="http://www.w3.org/2000/svg" viewBox="0 0 760 420" role="img"><title>y = ln(x − 2) + 1</title><rect width="760" height="420" fill="white"/><g font-family="Arial,sans-serif" font-size="17" fill="#163047"><text x="70" y="28" font-size="21">y = ln(x − 2) + 1</text><line x1="70" y1="205" x2="690" y2="205" stroke="#64748b" stroke-width="2" /><line x1="106.47058823529412" y1="360" x2="106.47058823529412" y2="50" stroke="#64748b" stroke-width="2" /><line x1="252.3529411764706" y1="360" x2="252.3529411764706" y2="50" stroke="#b45309" stroke-width="2" stroke-dasharray="7 5"/><path d="                                                                                                                                                                                                                                                                                                                                                                    M253.93,351.32 L254.45,336.70 L254.97,325.33 L255.48,316.01 L256.00,308.11 L256.52,301.27 L257.03,295.22 L257.55,289.81 L258.07,284.92 L258.58,280.44 L259.10,276.33 L259.62,272.52 L260.13,268.97 L260.65,265.64 L261.17,262.52 L261.68,259.58 L262.20,256.79 L262.72,254.15 L263.23,251.64 L263.75,249.24 L264.27,246.95 L264.78,244.76 L265.30,242.65 L265.82,240.63 L266.33,238.69 L266.85,236.81 L267.37,235.00 L267.88,233.25 L268.40,231.56 L268.92,229.93 L269.43,228.34 L269.95,226.80 L270.47,225.30 L270.98,223.85 L271.50,222.44 L272.02,221.06 L272.53,219.72 L273.05,218.42 L273.57,217.14 L274.08,215.90 L274.60,214.68 L275.12,213.50 L275.63,212.34 L276.15,211.20 L276.67,210.09 L277.18,209.01 L277.70,207.94 L278.22,206.90 L278.73,205.88 L279.25,204.88 L279.77,203.89 L280.28,202.93 L280.80,201.98 L281.32,201.05 L281.83,200.14 L282.35,199.24 L282.87,198.36 L283.38,197.49 L283.90,196.64 L284.42,195.80 L284.93,194.97 L285.45,194.16 L285.97,193.36 L286.48,192.57 L287.00,191.80 L287.52,191.03 L288.03,190.28 L288.55,189.53 L289.07,188.80 L289.58,188.08 L290.10,187.37 L290.62,186.67 L291.13,185.97 L291.65,185.29 L292.17,184.61 L292.68,183.95 L293.20,183.29 L293.72,182.64 L294.23,182.00 L294.75,181.37 L295.27,180.74 L295.78,180.12 L296.30,179.51 L296.82,178.91 L297.33,178.31 L297.85,177.72 L298.37,177.14 L298.88,176.56 L299.40,175.99 L299.92,175.43 L300.43,174.87 L300.95,174.31 L301.47,173.77 L301.98,173.23 L302.50,172.69 L303.02,172.16 L303.53,171.64 L304.05,171.12 L304.57,170.61 L305.08,170.10 L305.60,169.59 L306.12,169.09 L306.63,168.60 L307.15,168.11 L307.67,167.63 L308.18,167.15 L308.70,166.67 L309.22,166.20 L309.73,165.73 L310.25,165.27 L310.77,164.81 L311.28,164.35 L311.80,163.90 L312.32,163.46 L312.83,163.01 L313.35,162.57 L313.87,162.14 L314.38,161.70 L314.90,161.28 L315.42,160.85 L315.93,160.43 L316.45,160.01 L316.97,159.60 L317.48,159.19 L318.00,158.78 L318.52,158.37 L319.03,157.97 L319.55,157.57 L320.07,157.18 L320.58,156.78 L321.10,156.39 L321.62,156.01 L322.13,155.62 L322.65,155.24 L323.17,154.86 L323.68,154.49 L324.20,154.11 L324.72,153.74 L325.23,153.38 L325.75,153.01 L326.27,152.65 L326.78,152.29 L327.30,151.93 L327.82,151.58 L328.33,151.22 L328.85,150.87 L329.37,150.53 L329.88,150.18 L330.40,149.84 L330.92,149.50 L331.43,149.16 L331.95,148.82 L332.47,148.49 L332.98,148.16 L333.50,147.83 L334.02,147.50 L334.53,147.17 L335.05,146.85 L335.57,146.53 L336.08,146.21 L336.60,145.89 L337.12,145.57 L337.63,145.26 L338.15,144.95 L338.67,144.64 L339.18,144.33 L339.70,144.02 L340.22,143.72 L340.73,143.41 L341.25,143.11 L341.77,142.81 L342.28,142.52 L342.80,142.22 L343.32,141.92 L343.83,141.63 L344.35,141.34 L344.87,141.05 L345.38,140.76 L345.90,140.48 L346.42,140.19 L346.93,139.91 L347.45,139.63 L347.97,139.35 L348.48,139.07 L349.00,138.79 L349.52,138.52 L350.03,138.24 L350.55,137.97 L351.07,137.70 L351.58,137.43 L352.10,137.16 L352.62,136.90 L353.13,136.63 L353.65,136.37 L354.17,136.10 L354.68,135.84 L355.20,135.58 L355.72,135.32 L356.23,135.06 L356.75,134.81 L357.27,134.55 L357.78,134.30 L358.30,134.05 L358.82,133.80 L359.33,133.55 L359.85,133.30 L360.37,133.05 L360.88,132.80 L361.40,132.56 L361.92,132.31 L362.43,132.07 L362.95,131.83 L363.47,131.59 L363.98,131.35 L364.50,131.11 L365.02,130.87 L365.53,130.63 L366.05,130.40 L366.57,130.17 L367.08,129.93 L367.60,129.70 L368.12,129.47 L368.63,129.24 L369.15,129.01 L369.67,128.78 L370.18,128.55 L370.70,128.33 L371.22,128.10 L371.73,127.88 L372.25,127.66 L372.77,127.43 L373.28,127.21 L373.80,126.99 L374.32,126.77 L374.83,126.55 L375.35,126.34 L375.87,126.12 L376.38,125.90 L376.90,125.69 L377.42,125.48 L377.93,125.26 L378.45,125.05 L378.97,124.84 L379.48,124.63 L380.00,124.42 L380.52,124.21 L381.03,124.00 L381.55,123.80 L382.07,123.59 L382.58,123.38 L383.10,123.18 L383.62,122.98 L384.13,122.77 L384.65,122.57 L385.17,122.37 L385.68,122.17 L386.20,121.97 L386.72,121.77 L387.23,121.57 L387.75,121.37 L388.27,121.18 L388.78,120.98 L389.30,120.79 L389.82,120.59 L390.33,120.40 L390.85,120.20 L391.37,120.01 L391.88,119.82 L392.40,119.63 L392.92,119.44 L393.43,119.25 L393.95,119.06 L394.47,118.87 L394.98,118.69 L395.50,118.50 L396.02,118.31 L396.53,118.13 L397.05,117.94 L397.57,117.76 L398.08,117.57 L398.60,117.39 L399.12,117.21 L399.63,117.03 L400.15,116.85 L400.67,116.67 L401.18,116.49 L401.70,116.31 L402.22,116.13 L402.73,115.95 L403.25,115.77 L403.77,115.60 L404.28,115.42 L404.80,115.25 L405.32,115.07 L405.83,114.90 L406.35,114.72 L406.87,114.55 L407.38,114.38 L407.90,114.21 L408.42,114.04 L408.93,113.86 L409.45,113.69 L409.97,113.52 L410.48,113.36 L411.00,113.19 L411.52,113.02 L412.03,112.85 L412.55,112.68 L413.07,112.52 L413.58,112.35 L414.10,112.19 L414.62,112.02 L415.13,111.86 L415.65,111.69 L416.17,111.53 L416.68,111.37 L417.20,111.21 L417.72,111.04 L418.23,110.88 L418.75,110.72 L419.27,110.56 L419.78,110.40 L420.30,110.24 L420.82,110.08 L421.33,109.93 L421.85,109.77 L422.37,109.61 L422.88,109.45 L423.40,109.30 L423.92,109.14 L424.43,108.99 L424.95,108.83 L425.47,108.68 L425.98,108.52 L426.50,108.37 L427.02,108.22 L427.53,108.06 L428.05,107.91 L428.57,107.76 L429.08,107.61 L429.60,107.46 L430.12,107.31 L430.63,107.16 L431.15,107.01 L431.67,106.86 L432.18,106.71 L432.70,106.56 L433.22,106.42 L433.73,106.27 L434.25,106.12 L434.77,105.97 L435.28,105.83 L435.80,105.68 L436.32,105.54 L436.83,105.39 L437.35,105.25 L437.87,105.10 L438.38,104.96 L438.90,104.82 L439.42,104.67 L439.93,104.53 L440.45,104.39 L440.97,104.25 L441.48,104.11 L442.00,103.97 L442.52,103.82 L443.03,103.68 L443.55,103.54 L444.07,103.41 L444.58,103.27 L445.10,103.13 L445.62,102.99 L446.13,102.85 L446.65,102.71 L447.17,102.58 L447.68,102.44 L448.20,102.30 L448.72,102.17 L449.23,102.03 L449.75,101.90 L450.27,101.76 L450.78,101.63 L451.30,101.49 L451.82,101.36 L452.33,101.22 L452.85,101.09 L453.37,100.96 L453.88,100.83 L454.40,100.69 L454.92,100.56 L455.43,100.43 L455.95,100.30 L456.47,100.17 L456.98,100.04 L457.50,99.91 L458.02,99.78 L458.53,99.65 L459.05,99.52 L459.57,99.39 L460.08,99.26 L460.60,99.13 L461.12,99.00 L461.63,98.88 L462.15,98.75 L462.67,98.62 L463.18,98.49 L463.70,98.37 L464.22,98.24 L464.73,98.12 L465.25,97.99 L465.77,97.87 L466.28,97.74 L466.80,97.62 L467.32,97.49 L467.83,97.37 L468.35,97.24 L468.87,97.12 L469.38,97.00 L469.90,96.87 L470.42,96.75 L470.93,96.63 L471.45,96.51 L471.97,96.39 L472.48,96.26 L473.00,96.14 L473.52,96.02 L474.03,95.90 L474.55,95.78 L475.07,95.66 L475.58,95.54 L476.10,95.42 L476.62,95.30 L477.13,95.18 L477.65,95.07 L478.17,94.95 L478.68,94.83 L479.20,94.71 L479.72,94.59 L480.23,94.48 L480.75,94.36 L481.27,94.24 L481.78,94.13 L482.30,94.01 L482.82,93.89 L483.33,93.78 L483.85,93.66 L484.37,93.55 L484.88,93.43 L485.40,93.32 L485.92,93.20 L486.43,93.09 L486.95,92.98 L487.47,92.86 L487.98,92.75 L488.50,92.64 L489.02,92.52 L489.53,92.41 L490.05,92.30 L490.57,92.19 L491.08,92.07 L491.60,91.96 L492.12,91.85 L492.63,91.74 L493.15,91.63 L493.67,91.52 L494.18,91.41 L494.70,91.30 L495.22,91.19 L495.73,91.08 L496.25,90.97 L496.77,90.86 L497.28,90.75 L497.80,90.64 L498.32,90.53 L498.83,90.42 L499.35,90.31 L499.87,90.21 L500.38,90.10 L500.90,89.99 L501.42,89.88 L501.93,89.78 L502.45,89.67 L502.97,89.56 L503.48,89.46 L504.00,89.35 L504.52,89.24 L505.03,89.14 L505.55,89.03 L506.07,88.93 L506.58,88.82 L507.10,88.72 L507.62,88.61 L508.13,88.51 L508.65,88.40 L509.17,88.30 L509.68,88.20 L510.20,88.09 L510.72,87.99 L511.23,87.89 L511.75,87.78 L512.27,87.68 L512.78,87.58 L513.30,87.48 L513.82,87.37 L514.33,87.27 L514.85,87.17 L515.37,87.07 L515.88,86.97 L516.40,86.87 L516.92,86.76 L517.43,86.66 L517.95,86.56 L518.47,86.46 L518.98,86.36 L519.50,86.26 L520.02,86.16 L520.53,86.06 L521.05,85.96 L521.57,85.86 L522.08,85.77 L522.60,85.67 L523.12,85.57 L523.63,85.47 L524.15,85.37 L524.67,85.27 L525.18,85.17 L525.70,85.08 L526.22,84.98 L526.73,84.88 L527.25,84.78 L527.77,84.69 L528.28,84.59 L528.80,84.49 L529.32,84.40 L529.83,84.30 L530.35,84.21 L530.87,84.11 L531.38,84.01 L531.90,83.92 L532.42,83.82 L532.93,83.73 L533.45,83.63 L533.97,83.54 L534.48,83.44 L535.00,83.35 L535.52,83.25 L536.03,83.16 L536.55,83.07 L537.07,82.97 L537.58,82.88 L538.10,82.78 L538.62,82.69 L539.13,82.60 L539.65,82.51 L540.17,82.41 L540.68,82.32 L541.20,82.23 L541.72,82.14 L542.23,82.04 L542.75,81.95 L543.27,81.86 L543.78,81.77 L544.30,81.68 L544.82,81.58 L545.33,81.49 L545.85,81.40 L546.37,81.31 L546.88,81.22 L547.40,81.13 L547.92,81.04 L548.43,80.95 L548.95,80.86 L549.47,80.77 L549.98,80.68 L550.50,80.59 L551.02,80.50 L551.53,80.41 L552.05,80.32 L552.57,80.23 L553.08,80.14 L553.60,80.06 L554.12,79.97 L554.63,79.88 L555.15,79.79 L555.67,79.70 L556.18,79.61 L556.70,79.53 L557.22,79.44 L557.73,79.35 L558.25,79.26 L558.77,79.18 L559.28,79.09 L559.80,79.00 L560.32,78.92 L560.83,78.83 L561.35,78.74 L561.87,78.66 L562.38,78.57 L562.90,78.48 L563.42,78.40 L563.93,78.31 L564.45,78.23 L564.97,78.14 L565.48,78.06 L566.00,77.97 L566.52,77.89 L567.03,77.80 L567.55,77.72 L568.07,77.63 L568.58,77.55 L569.10,77.46 L569.62,77.38 L570.13,77.30 L570.65,77.21 L571.17,77.13 L571.68,77.04 L572.20,76.96 L572.72,76.88 L573.23,76.79 L573.75,76.71 L574.27,76.63 L574.78,76.54 L575.30,76.46 L575.82,76.38 L576.33,76.30 L576.85,76.21 L577.37,76.13 L577.88,76.05 L578.40,75.97 L578.92,75.89 L579.43,75.80 L579.95,75.72 L580.47,75.64 L580.98,75.56 L581.50,75.48 L582.02,75.40 L582.53,75.32 L583.05,75.24 L583.57,75.16 L584.08,75.08 L584.60,75.00 L585.12,74.91 L585.63,74.83 L586.15,74.75 L586.67,74.67 L587.18,74.59 L587.70,74.52 L588.22,74.44 L588.73,74.36 L589.25,74.28 L589.77,74.20 L590.28,74.12 L590.80,74.04 L591.32,73.96 L591.83,73.88 L592.35,73.80 L592.87,73.73 L593.38,73.65 L593.90,73.57 L594.42,73.49 L594.93,73.41 L595.45,73.33 L595.97,73.26 L596.48,73.18 L597.00,73.10 L597.52,73.02 L598.03,72.95 L598.55,72.87 L599.07,72.79 L599.58,72.72 L600.10,72.64 L600.62,72.56 L601.13,72.49 L601.65,72.41 L602.17,72.33 L602.68,72.26 L603.20,72.18 L603.72,72.10 L604.23,72.03 L604.75,71.95 L605.27,71.88 L605.78,71.80 L606.30,71.73 L606.82,71.65 L607.33,71.58 L607.85,71.50 L608.37,71.43 L608.88,71.35 L609.40,71.28 L609.92,71.20 L610.43,71.13 L610.95,71.05 L611.47,70.98 L611.98,70.90 L612.50,70.83 L613.02,70.75 L613.53,70.68 L614.05,70.61 L614.57,70.53 L615.08,70.46 L615.60,70.39 L616.12,70.31 L616.63,70.24 L617.15,70.17 L617.67,70.09 L618.18,70.02 L618.70,69.95 L619.22,69.87 L619.73,69.80 L620.25,69.73 L620.77,69.66 L621.28,69.58 L621.80,69.51 L622.32,69.44 L622.83,69.37 L623.35,69.30 L623.87,69.22 L624.38,69.15 L624.90,69.08 L625.42,69.01 L625.93,68.94 L626.45,68.87 L626.97,68.79 L627.48,68.72 L628.00,68.65 L628.52,68.58 L629.03,68.51 L629.55,68.44 L630.07,68.37 L630.58,68.30 L631.10,68.23 L631.62,68.16 L632.13,68.09 L632.65,68.02 L633.17,67.95 L633.68,67.88 L634.20,67.81 L634.72,67.74 L635.23,67.67 L635.75,67.60 L636.27,67.53 L636.78,67.46 L637.30,67.39 L637.82,67.32 L638.33,67.25 L638.85,67.18 L639.37,67.11 L639.88,67.04 L640.40,66.97 L640.92,66.91 L641.43,66.84 L641.95,66.77 L642.47,66.70 L642.98,66.63 L643.50,66.56 L644.02,66.49 L644.53,66.43 L645.05,66.36 L645.57,66.29 L646.08,66.22 L646.60,66.15 L647.12,66.09 L647.63,66.02 L648.15,65.95 L648.67,65.88 L649.18,65.82 L649.70,65.75 L650.22,65.68 L650.73,65.62 L651.25,65.55 L651.77,65.48 L652.28,65.42 L652.80,65.35 L653.32,65.28 L653.83,65.22 L654.35,65.15 L654.87,65.08 L655.38,65.02 L655.90,64.95 L656.42,64.88 L656.93,64.82 L657.45,64.75 L657.97,64.69 L658.48,64.62 L659.00,64.55 L659.52,64.49 L660.03,64.42 L660.55,64.36 L661.07,64.29 L661.58,64.23 L662.10,64.16 L662.62,64.10 L663.13,64.03 L663.65,63.97 L664.17,63.90 L664.68,63.84 L665.20,63.77 L665.72,63.71 L666.23,63.64 L666.75,63.58 L667.27,63.52 L667.78,63.45 L668.30,63.39 L668.82,63.32 L669.33,63.26 L669.85,63.19 L670.37,63.13 L670.88,63.07 L671.40,63.00 L671.92,62.94 L672.43,62.88 L672.95,62.81 L673.47,62.75 L673.98,62.69 L674.50,62.62 L675.02,62.56 L675.53,62.50 L676.05,62.43 L676.57,62.37 L677.08,62.31 L677.60,62.24 L678.12,62.18 L678.63,62.12 L679.15,62.06 L679.67,61.99 L680.18,61.93 L680.70,61.87 L681.22,61.81 L681.73,61.74 L682.25,61.68 L682.77,61.62 L683.28,61.56 L683.80,61.50 L684.32,61.43 L684.83,61.37 L685.35,61.31 L685.87,61.25 L686.38,61.19 L686.90,61.13 L687.42,61.06 L687.93,61.00 L688.45,60.94 L688.97,60.88 L689.48,60.82 L690.00,60.76 " fill="none" stroke="#0369a1" stroke-width="3"/><text x="705" y="210">x</text><text x="86.47058823529412" y="48">y</text><text x="187.3529411764706" y="65.5">x = 2</text><circle cx="279.18650041485813" cy="205" r="4" fill="#164e63"/><text x="289.18650041485813" y="230">(2 + e⁻¹, 0)</text><circle cx="325.2941176470588" cy="153.33333333333334" r="4" fill="#164e63"/><text x="335.2941176470588" y="141.33333333333334">(3, 1)</text><text x="88.47058823529412" y="225">0</text></g></svg>